<svg version="1.1" xmlns="http://www.w3.org/2000/svg" x="0" y="0" viewBox="0 0 792 792" xml:space="preserve" enable-background="new 0 0 792 792" width="2500" height="2500"><path d="M110.16 537.4c7.85 0 14.25 6.4 14.25 14.04 0 7.85-6.4 14.04-14.25 14.04s-14.45-6.19-14.45-14.04c0-7.64 6.61-14.04 14.45-14.04m-12.18 73.3c0-3.72-.83-9.71-.83-13.22 0-7.43 5.78-13.22 13.01-13.22s13.01 5.78 13.01 13.22c0 3.51-1.03 9.5-1.03 13.22v47.9c0 3.72 1.03 9.71 1.03 13.22 0 7.43-5.78 13.22-13.01 13.22s-13.01-5.78-13.01-13.22c0-3.51.83-9.5.83-13.22zm167.46 61.12c0-3.51 1.03-9.5 1.03-13.22v-35.72c0-12.6-6.61-20.85-17.96-20.85-7.43 0-14.04 3.72-18.38 10.94.41 2.27.62 4.54.62 7.02v38.61c0 3.72 1.03 9.71 1.03 13.22 0 7.43-5.78 13.22-13.22 13.22-6.81 0-12.8-5.78-12.8-13.22 0-3.51 1.03-9.5 1.03-13.22v-36.34c0-3.92-.62-7.43-2.06-10.53-2.69-5.99-8.05-9.71-15.49-9.71-7.64 0-13.83 3.92-18.38 10.94v45.63c0 3.72 1.03 9.71 1.03 13.22 0 7.43-5.99 13.22-13.01 13.22-7.23 0-13.01-5.78-13.01-13.22 0-3.51.83-9.5.83-13.22v-47.7c0-3.72-1.86-10.32-1.86-13.42 0-7.43 5.37-13.22 12.6-13.22 6.81 0 10.74 4.54 11.98 10.53 6.19-8.26 14.87-13.42 26.22-13.42 13.42 0 23.13 6.4 29.11 16.73 6.81-10.74 16.73-16.73 29.11-16.73 20.86 0 36.75 15.07 36.75 39.23v37.99c0 3.72.83 9.71.83 13.22 0 7.43-5.57 13.22-13.01 13.22-7 .02-12.99-5.76-12.99-13.2m166.01 0c0-3.51 1.03-9.5 1.03-13.22v-35.72c0-12.6-6.61-20.85-17.96-20.85-7.43 0-14.04 3.72-18.38 10.94.41 2.27.62 4.54.62 7.02v38.61c0 3.72 1.03 9.71 1.03 13.22 0 7.43-5.78 13.22-13.22 13.22-6.82 0-12.8-5.78-12.8-13.22 0-3.51 1.03-9.5 1.03-13.22v-36.34c0-3.92-.62-7.43-2.06-10.53-2.68-5.99-8.05-9.71-15.49-9.71-7.64 0-13.83 3.92-18.38 10.94v45.63c0 3.72 1.03 9.71 1.03 13.22 0 7.43-5.99 13.22-13.01 13.22-7.23 0-13.01-5.78-13.01-13.22 0-3.51.83-9.5.83-13.22v-47.7c0-3.72-1.86-10.32-1.86-13.42 0-7.43 5.37-13.22 12.6-13.22 6.82 0 10.74 4.54 11.98 10.53 6.2-8.26 14.87-13.42 26.22-13.42 13.42 0 23.13 6.4 29.11 16.73 6.81-10.74 16.72-16.73 29.11-16.73 20.86 0 36.75 15.07 36.75 39.23v37.99c0 3.72.83 9.71.83 13.22 0 7.43-5.57 13.22-13.01 13.22-7 .02-12.99-5.76-12.99-13.2m59.88-134.42c7.85 0 14.25 6.4 14.25 14.04 0 7.85-6.4 14.04-14.25 14.04s-14.45-6.19-14.45-14.04c-.01-7.64 6.6-14.04 14.45-14.04m-12.18 73.3c0-3.72-.83-9.71-.83-13.22 0-7.43 5.78-13.22 13.01-13.22s13.01 5.78 13.01 13.22c0 3.51-1.03 9.5-1.03 13.22v47.9c0 3.72 1.03 9.71 1.03 13.22 0 7.43-5.78 13.22-13.01 13.22s-13.01-5.78-13.01-13.22c0-3.51.83-9.5.83-13.22zm42.94 23.34c0-29.11 18.17-52.65 48.32-52.65 15.9 0 30.56 7.23 37.17 17.97 2.48 3.92 2.89 6.19 2.89 8.05 0 6.4-4.96 11.77-12.18 11.77-4.75 0-9.08-2.68-10.94-7.43-2.89-6.4-8.47-10.12-16.93-10.12-15.9 0-24.78 14.25-24.78 32.21 0 18.17 9.29 32.21 25.4 32.21 8.67 0 14.87-3.1 17.76-9.5 2.06-4.34 5.99-8.05 11.36-8.05 7.43 0 11.98 5.16 11.98 11.56 0 3.1-1.24 6.81-3.92 10.32-6.82 9.09-19.62 16.31-37.17 16.31-30.99 0-48.96-23.13-48.96-52.65m168.08 37.78c0-3.51.83-9.5.83-13.22v-35.3c0-12.6-7.02-21.27-19-21.27-8.26 0-15.28 3.92-19.82 10.32v46.25c0 3.72.83 9.71.83 13.22 0 7.43-5.78 13.22-13.01 13.22s-13.01-5.78-13.01-13.22c0-3.51 1.03-9.5 1.03-13.22v-99.94c0-3.72-1.03-9.71-1.03-13.22 0-7.43 5.99-13.22 13.01-13.22 7.23 0 13.01 5.78 13.01 13.22 0 3.51-.83 9.5-.83 13.22v33.66c6.2-6.81 15.07-10.94 26.43-10.94 21.27 0 36.55 15.9 36.55 38.61v38.61c0 3.72 1.03 9.71 1.03 13.22 0 7.43-5.99 13.22-13.01 13.22-7.23 0-13.01-5.78-13.01-13.22" fill="#4251B0"/><path d="M376.76 216.42c28.32 25.07 51.15 51.95 65.83 77.27 25.23-45.12 42.08-98.73 42.3-132.88v-.66c0-50.53-50.41-70.2-93.82-70.2s-93.82 19.66-93.82 70.2v2.73c24.19 10.74 52.89 29.96 79.51 53.54" fill="#FA2921"/><path d="M222.27 354.21c17.7-19.69 44.85-41.04 75.5-59.08 32.6-19.19 65.21-32.59 93.83-38.73-35.11-37.94-80.89-70.53-113.31-81.29q-.345-.105-.63-.21c-48.06-15.61-82.34 26.25-95.75 67.54-13.42 41.29-10.29 95.31 37.77 110.92.65.22 1.53.5 2.59.85" fill="#ED79B5"/><path d="M600.73 241.74c-13.42-41.29-47.69-83.15-95.75-67.54-.66.21-1.54.5-2.6.84-2.75 26.34-12.16 59.57-26.36 92.17-15.09 34.68-33.6 64.69-53.14 86.48 50.7 10.05 106.9 9.52 139.45-.83q.345-.105.63-.21c48.06-15.6 51.19-69.62 37.77-110.91" fill="#FFB400"/><path d="M348.22 394.58c-8.17-36.93-10.84-72.09-7.84-101.2-46.93 21.67-92.08 55.14-112.33 82.64q-.21.285-.39.54c-29.7 40.88-.48 86.42 34.64 111.94s87.46 39.24 117.16-1.64c.41-.56.95-1.31 1.6-2.21-13.25-22.93-25.16-55.35-32.84-90.07" fill="#1E83F7"/><path d="M554.19 373.91c-25.9 5.53-60.41 6.84-95.81 3.42-37.65-3.64-71.91-11.96-98.67-23.82 6.11 51.33 23.99 104.61 43.89 132.37q.21.285.39.54c29.7 40.88 82.04 27.16 117.16 1.64S585.5 417 555.8 376.12c-.41-.56-.95-1.31-1.61-2.21" fill="#18C249"/></svg>